<svg xmlns="http://www.w3.org/2000/svg" xmlns:xlink="http://www.w3.org/1999/xlink" width="500" zoomAndPan="magnify" viewBox="0 0 375 374.999991" height="500" preserveAspectRatio="xMidYMid meet" version="1.2"><defs/><g id="bdf34da269"><rect x="0" width="375" y="0" height="374.999991" style="fill:#ffffff;fill-opacity:1;stroke:none;"/><rect x="0" width="375" y="0" height="374.999991" style="fill:#ffffff;fill-opacity:1;stroke:none;"/><g style="fill:#000000;fill-opacity:1;"><g transform="translate(32.404979, 214.124986)"><path style="stroke:none" d="M 37.796875 0 L 34.078125 -12.1875 L 15.40625 -12.1875 L 11.703125 0 L 0 0 L 18.078125 -51.421875 L 31.34375 -51.421875 L 49.5 0 Z M 31.484375 -21.296875 L 27.78125 -33.203125 C 27.539062 -33.992188 27.226562 -35.015625 26.84375 -36.265625 C 26.457031 -37.515625 26.070312 -38.785156 25.6875 -40.078125 C 25.300781 -41.378906 24.992188 -42.507812 24.765625 -43.46875 C 24.523438 -42.507812 24.203125 -41.320312 23.796875 -39.90625 C 23.390625 -38.5 23 -37.164062 22.625 -35.90625 C 22.25 -34.644531 21.984375 -33.742188 21.828125 -33.203125 L 18.140625 -21.296875 Z M 31.484375 -21.296875 "/></g></g><g style="fill:#000000;fill-opacity:1;"><g transform="translate(88.351833, 214.124986)"><path style="stroke:none" d="M 48.125 -51.203125 L 48.125 -18.078125 C 48.125 -14.546875 47.347656 -11.359375 45.796875 -8.515625 C 44.242188 -5.679688 41.894531 -3.4375 38.75 -1.78125 C 35.613281 -0.125 31.664062 0.703125 26.90625 0.703125 C 20.132812 0.703125 14.972656 -1.023438 11.421875 -4.484375 C 7.867188 -7.941406 6.09375 -12.519531 6.09375 -18.21875 L 6.09375 -51.203125 L 16.921875 -51.203125 L 16.921875 -19.859375 C 16.921875 -15.628906 17.785156 -12.660156 19.515625 -10.953125 C 21.242188 -9.253906 23.800781 -8.40625 27.1875 -8.40625 C 29.5625 -8.40625 31.488281 -8.8125 32.96875 -9.625 C 34.457031 -10.445312 35.550781 -11.707031 36.25 -13.40625 C 36.945312 -15.113281 37.296875 -17.289062 37.296875 -19.9375 L 37.296875 -51.203125 Z M 48.125 -51.203125 "/></g></g><g style="fill:#000000;fill-opacity:1;"><g transform="translate(149.027008, 214.124986)"><path style="stroke:none" d="M 48.9375 -26.09375 C 48.9375 -20.320312 47.832031 -15.503906 45.625 -11.640625 C 43.414062 -7.773438 40.21875 -4.867188 36.03125 -2.921875 C 31.851562 -0.972656 26.828125 0 20.953125 0 L 6.4375 0 L 6.4375 -51.203125 L 22.515625 -51.203125 C 27.890625 -51.203125 32.550781 -50.25 36.5 -48.34375 C 40.445312 -46.445312 43.503906 -43.632812 45.671875 -39.90625 C 47.847656 -36.1875 48.9375 -31.582031 48.9375 -26.09375 Z M 37.65625 -25.8125 C 37.65625 -29.59375 37.097656 -32.703125 35.984375 -35.140625 C 34.878906 -37.585938 33.242188 -39.394531 31.078125 -40.5625 C 28.921875 -41.726562 26.253906 -42.3125 23.078125 -42.3125 L 17.296875 -42.3125 L 17.296875 -8.96875 L 21.96875 -8.96875 C 27.257812 -8.96875 31.195312 -10.378906 33.78125 -13.203125 C 36.363281 -16.023438 37.65625 -20.226562 37.65625 -25.8125 Z M 37.65625 -25.8125 "/></g></g><g style="fill:#000000;fill-opacity:1;"><g transform="translate(208.581393, 214.124986)"><path style="stroke:none" d="M 6.4375 0 L 6.4375 -51.203125 L 17.296875 -51.203125 L 17.296875 0 Z M 6.4375 0 "/></g></g><g style="fill:#000000;fill-opacity:1;"><g transform="translate(238.78513, 214.124986)"><path style="stroke:none" d="M 47.84375 0 L 35.453125 0 L 23.53125 -19.375 L 11.625 0 L 0 0 L 16.984375 -26.40625 L 1.078125 -51.203125 L 13.0625 -51.203125 L 24.09375 -32.78125 L 34.921875 -51.203125 L 46.625 -51.203125 L 30.546875 -25.8125 Z M 47.84375 0 "/></g></g><g style="fill:#000000;fill-opacity:1;"><g transform="translate(293.085809, 214.124986)"><path style="stroke:none" d="M 37.796875 0 L 34.078125 -12.1875 L 15.40625 -12.1875 L 11.703125 0 L 0 0 L 18.078125 -51.421875 L 31.34375 -51.421875 L 49.5 0 Z M 31.484375 -21.296875 L 27.78125 -33.203125 C 27.539062 -33.992188 27.226562 -35.015625 26.84375 -36.265625 C 26.457031 -37.515625 26.070312 -38.785156 25.6875 -40.078125 C 25.300781 -41.378906 24.992188 -42.507812 24.765625 -43.46875 C 24.523438 -42.507812 24.203125 -41.320312 23.796875 -39.90625 C 23.390625 -38.5 23 -37.164062 22.625 -35.90625 C 22.25 -34.644531 21.984375 -33.742188 21.828125 -33.203125 L 18.140625 -21.296875 Z M 31.484375 -21.296875 "/></g></g></g></svg>