<svg xmlns="http://www.w3.org/2000/svg" xmlns:xlink="http://www.w3.org/1999/xlink" width="294" zoomAndPan="magnify" viewBox="0 0 220.5 30.000001" height="40" preserveAspectRatio="xMidYMid meet" version="1.0"><defs><clipPath id="e0675de213"><path d="M 43.910156 11.523438 L 46.882812 11.523438 L 46.882812 18 L 43.910156 18 Z M 43.910156 11.523438 " clip-rule="nonzero"/></clipPath><clipPath id="a209b41ef7"><path d="M 68.558594 11.523438 L 71.492188 11.523438 L 71.492188 18 L 68.558594 18 Z M 68.558594 11.523438 " clip-rule="nonzero"/></clipPath><clipPath id="b7bd4bdd7b"><path d="M 58.496094 3.210938 L 61.59375 3.210938 L 61.59375 26.4375 L 58.496094 26.4375 Z M 58.496094 3.210938 " clip-rule="nonzero"/></clipPath></defs><g clip-path="url(#e0675de213)"><path fill="#ffffff" d="M 45.269531 17.820312 C 44.53125 17.820312 43.929688 17.222656 43.929688 16.484375 L 43.929688 13.074219 C 43.929688 12.335938 44.53125 11.738281 45.269531 11.738281 C 46.007812 11.738281 46.605469 12.335938 46.605469 13.074219 L 46.605469 16.484375 C 46.605469 17.222656 46.007812 17.820312 45.269531 17.820312 " fill-opacity="1" fill-rule="nonzero"/></g><path fill="#ffffff" d="M 50.015625 22.203125 C 49.277344 22.203125 48.679688 21.601562 48.679688 20.863281 L 48.679688 8.691406 C 48.679688 7.957031 49.277344 7.355469 50.015625 7.355469 C 50.753906 7.355469 51.355469 7.957031 51.355469 8.691406 L 51.355469 20.863281 C 51.355469 21.601562 50.753906 22.203125 50.015625 22.203125 " fill-opacity="1" fill-rule="nonzero"/><path fill="#ffffff" d="M 54.765625 18.488281 C 54.027344 18.488281 53.425781 17.890625 53.425781 17.152344 L 53.425781 12.40625 C 53.425781 11.664062 54.027344 11.066406 54.765625 11.066406 C 55.503906 11.066406 56.101562 11.664062 56.101562 12.40625 L 56.101562 17.152344 C 56.101562 17.890625 55.503906 18.488281 54.765625 18.488281 " fill-opacity="1" fill-rule="nonzero"/><g clip-path="url(#a209b41ef7)"><path fill="#ffffff" d="M 70.144531 11.738281 C 70.882812 11.738281 71.484375 12.335938 71.484375 13.074219 L 71.484375 16.484375 C 71.484375 17.222656 70.882812 17.820312 70.144531 17.820312 C 69.40625 17.820312 68.808594 17.222656 68.808594 16.484375 L 68.808594 13.074219 C 68.808594 12.335938 69.40625 11.738281 70.144531 11.738281 " fill-opacity="1" fill-rule="nonzero"/></g><path fill="#ffffff" d="M 65.398438 8.257812 C 66.136719 8.257812 66.734375 8.859375 66.734375 9.597656 L 66.734375 19.960938 C 66.734375 20.699219 66.136719 21.300781 65.398438 21.300781 C 64.660156 21.300781 64.058594 20.699219 64.058594 19.960938 L 64.058594 9.597656 C 64.058594 8.859375 64.660156 8.257812 65.398438 8.257812 " fill-opacity="1" fill-rule="nonzero"/><g clip-path="url(#b7bd4bdd7b)"><path fill="#ffffff" d="M 60.082031 26.347656 C 59.34375 26.347656 58.742188 25.746094 58.742188 25.011719 L 58.742188 4.546875 C 58.742188 3.808594 59.34375 3.207031 60.082031 3.207031 C 60.820312 3.207031 61.417969 3.808594 61.417969 4.546875 L 61.417969 25.011719 C 61.417969 25.746094 60.820312 26.347656 60.082031 26.347656 " fill-opacity="1" fill-rule="nonzero"/></g><path fill="#ffffff" d="M 91.949219 23.28125 L 90.769531 19.40625 L 84.828125 19.40625 L 83.648438 23.28125 L 79.929688 23.28125 L 85.675781 6.929688 L 89.898438 6.929688 L 95.667969 23.28125 Z M 89.945312 16.507812 L 88.765625 12.722656 C 88.6875 12.46875 88.585938 12.144531 88.464844 11.75 C 88.34375 11.347656 88.222656 10.945312 88.101562 10.53125 C 87.980469 10.121094 87.878906 9.761719 87.804688 9.457031 C 87.730469 9.761719 87.628906 10.144531 87.496094 10.59375 C 87.367188 11.039062 87.242188 11.46875 87.121094 11.871094 C 87.003906 12.269531 86.917969 12.554688 86.867188 12.722656 L 85.699219 16.507812 Z M 89.945312 16.507812 " fill-opacity="1" fill-rule="nonzero"/><path fill="#ffffff" d="M 113.03125 6.996094 L 113.03125 17.535156 C 113.03125 18.660156 112.78125 19.671875 112.285156 20.574219 C 111.792969 21.472656 111.046875 22.1875 110.046875 22.714844 C 109.046875 23.242188 107.792969 23.507812 106.28125 23.507812 C 104.121094 23.507812 102.480469 22.960938 101.351562 21.863281 C 100.222656 20.761719 99.65625 19.304688 99.65625 17.488281 L 99.65625 6.996094 L 103.105469 6.996094 L 103.105469 16.96875 C 103.105469 18.3125 103.378906 19.253906 103.925781 19.800781 C 104.476562 20.339844 105.289062 20.609375 106.363281 20.609375 C 107.121094 20.609375 107.738281 20.480469 108.210938 20.222656 C 108.679688 19.960938 109.027344 19.558594 109.25 19.019531 C 109.476562 18.472656 109.589844 17.785156 109.589844 16.945312 L 109.589844 6.996094 Z M 113.03125 6.996094 " fill-opacity="1" fill-rule="nonzero"/><path fill="#ffffff" d="M 132.582031 14.984375 C 132.582031 16.820312 132.230469 18.351562 131.527344 19.582031 C 130.828125 20.808594 129.808594 21.730469 128.480469 22.351562 C 127.152344 22.972656 125.550781 23.28125 123.675781 23.28125 L 119.070312 23.28125 L 119.070312 6.996094 L 124.179688 6.996094 C 125.886719 6.996094 127.371094 7.300781 128.625 7.90625 C 129.878906 8.511719 130.851562 9.40625 131.539062 10.59375 C 132.234375 11.777344 132.582031 13.238281 132.582031 14.984375 Z M 128.992188 15.074219 C 128.992188 13.871094 128.816406 12.878906 128.460938 12.105469 C 128.109375 11.328125 127.589844 10.753906 126.902344 10.382812 C 126.214844 10.011719 125.367188 9.824219 124.359375 9.824219 L 122.523438 9.824219 L 122.523438 20.429688 L 124.003906 20.429688 C 125.6875 20.429688 126.941406 19.980469 127.761719 19.085938 C 128.582031 18.1875 128.992188 16.851562 128.992188 15.074219 Z M 128.992188 15.074219 " fill-opacity="1" fill-rule="nonzero"/><path fill="#ffffff" d="M 138.007812 6.996094 L 141.460938 6.996094 L 141.460938 23.28125 L 138.007812 23.28125 Z M 138.007812 6.996094 " fill-opacity="1" fill-rule="nonzero"/><path fill="#ffffff" d="M 160.78125 23.28125 L 156.835938 23.28125 L 153.050781 17.121094 L 149.257812 23.28125 L 145.5625 23.28125 L 150.964844 14.882812 L 145.910156 6.996094 L 149.71875 6.996094 L 153.226562 12.855469 L 156.667969 6.996094 L 160.386719 6.996094 L 155.277344 15.074219 Z M 160.78125 23.28125 " fill-opacity="1" fill-rule="nonzero"/><path fill="#ffffff" d="M 174.851562 23.28125 L 173.671875 19.40625 L 167.730469 19.40625 L 166.550781 23.28125 L 162.832031 23.28125 L 168.578125 6.929688 L 172.800781 6.929688 L 178.570312 23.28125 Z M 172.847656 16.507812 L 171.667969 12.722656 C 171.59375 12.46875 171.492188 12.144531 171.367188 11.75 C 171.246094 11.347656 171.125 10.945312 171.003906 10.53125 C 170.882812 10.121094 170.78125 9.761719 170.707031 9.457031 C 170.636719 9.761719 170.53125 10.144531 170.398438 10.59375 C 170.269531 11.039062 170.144531 11.46875 170.023438 11.871094 C 169.90625 12.269531 169.820312 12.554688 169.769531 12.722656 L 168.601562 16.507812 Z M 172.847656 16.507812 " fill-opacity="1" fill-rule="nonzero"/></svg>