<svg xmlns="http://www.w3.org/2000/svg" xmlns:xlink="http://www.w3.org/1999/xlink" width="294" zoomAndPan="magnify" viewBox="0 0 220.5 30.000001" height="40" preserveAspectRatio="xMidYMid meet" version="1.0"><defs><clipPath id="fc93075d87"><path d="M 43.691406 11.128906 L 46.664062 11.128906 L 46.664062 17.710938 L 43.691406 17.710938 Z M 43.691406 11.128906 " clip-rule="nonzero"/></clipPath><clipPath id="da6cc14151"><path d="M 68.339844 11.128906 L 71.269531 11.128906 L 71.269531 17.710938 L 68.339844 17.710938 Z M 68.339844 11.128906 " clip-rule="nonzero"/></clipPath><clipPath id="8eee750b45"><path d="M 58.277344 2.816406 L 61.371094 2.816406 L 61.371094 26 L 58.277344 26 Z M 58.277344 2.816406 " clip-rule="nonzero"/></clipPath></defs><g clip-path="url(#fc93075d87)"><path fill="#000000" d="M 45.050781 17.425781 C 44.308594 17.425781 43.710938 16.828125 43.710938 16.089844 L 43.710938 12.679688 C 43.710938 11.941406 44.308594 11.34375 45.050781 11.34375 C 45.789062 11.34375 46.386719 11.941406 46.386719 12.679688 L 46.386719 16.089844 C 46.386719 16.828125 45.789062 17.425781 45.050781 17.425781 " fill-opacity="1" fill-rule="nonzero"/></g><path fill="#000000" d="M 49.796875 21.808594 C 49.058594 21.808594 48.460938 21.207031 48.460938 20.46875 L 48.460938 8.296875 C 48.460938 7.558594 49.058594 6.960938 49.796875 6.960938 C 50.535156 6.960938 51.132812 7.558594 51.132812 8.296875 L 51.132812 20.46875 C 51.132812 21.207031 50.535156 21.808594 49.796875 21.808594 " fill-opacity="1" fill-rule="nonzero"/><path fill="#000000" d="M 54.546875 18.09375 C 53.804688 18.09375 53.207031 17.496094 53.207031 16.757812 L 53.207031 12.011719 C 53.207031 11.269531 53.804688 10.671875 54.546875 10.671875 C 55.285156 10.671875 55.882812 11.269531 55.882812 12.011719 L 55.882812 16.757812 C 55.882812 17.496094 55.285156 18.09375 54.546875 18.09375 " fill-opacity="1" fill-rule="nonzero"/><g clip-path="url(#da6cc14151)"><path fill="#000000" d="M 69.925781 11.34375 C 70.664062 11.34375 71.261719 11.941406 71.261719 12.679688 L 71.261719 16.089844 C 71.261719 16.828125 70.664062 17.425781 69.925781 17.425781 C 69.1875 17.425781 68.589844 16.828125 68.589844 16.089844 L 68.589844 12.679688 C 68.589844 11.941406 69.1875 11.34375 69.925781 11.34375 " fill-opacity="1" fill-rule="nonzero"/></g><path fill="#000000" d="M 65.179688 7.863281 C 65.917969 7.863281 66.515625 8.464844 66.515625 9.199219 L 66.515625 19.566406 C 66.515625 20.304688 65.917969 20.90625 65.179688 20.90625 C 64.441406 20.90625 63.839844 20.304688 63.839844 19.566406 L 63.839844 9.199219 C 63.839844 8.464844 64.441406 7.863281 65.179688 7.863281 " fill-opacity="1" fill-rule="nonzero"/><g clip-path="url(#8eee750b45)"><path fill="#000000" d="M 59.863281 25.953125 C 59.121094 25.953125 58.523438 25.351562 58.523438 24.617188 L 58.523438 4.152344 C 58.523438 3.414062 59.121094 2.8125 59.863281 2.8125 C 60.601562 2.8125 61.199219 3.414062 61.199219 4.152344 L 61.199219 24.617188 C 61.199219 25.351562 60.601562 25.953125 59.863281 25.953125 " fill-opacity="1" fill-rule="nonzero"/></g><path fill="#000000" d="M 91.726562 22.886719 L 90.546875 19.011719 L 84.609375 19.011719 L 83.429688 22.886719 L 79.710938 22.886719 L 85.457031 6.535156 L 89.675781 6.535156 L 95.449219 22.886719 Z M 89.726562 16.113281 L 88.546875 12.328125 C 88.46875 12.074219 88.367188 11.75 88.246094 11.355469 C 88.125 10.953125 88.003906 10.550781 87.882812 10.136719 C 87.761719 9.726562 87.660156 9.367188 87.585938 9.0625 C 87.511719 9.367188 87.410156 9.75 87.277344 10.199219 C 87.144531 10.644531 87.023438 11.074219 86.902344 11.476562 C 86.785156 11.875 86.699219 12.160156 86.648438 12.328125 L 85.480469 16.113281 Z M 89.726562 16.113281 " fill-opacity="1" fill-rule="nonzero"/><path fill="#000000" d="M 112.8125 6.601562 L 112.8125 17.140625 C 112.8125 18.265625 112.5625 19.277344 112.066406 20.179688 C 111.574219 21.078125 110.828125 21.792969 109.828125 22.320312 C 108.828125 22.847656 107.574219 23.113281 106.0625 23.113281 C 103.902344 23.113281 102.257812 22.566406 101.132812 21.46875 C 100.003906 20.367188 99.4375 18.910156 99.4375 17.09375 L 99.4375 6.601562 L 102.886719 6.601562 L 102.886719 16.574219 C 102.886719 17.917969 103.160156 18.859375 103.707031 19.40625 C 104.253906 19.945312 105.070312 20.214844 106.144531 20.214844 C 106.902344 20.214844 107.519531 20.085938 107.992188 19.828125 C 108.460938 19.566406 108.808594 19.164062 109.03125 18.625 C 109.257812 18.078125 109.371094 17.390625 109.371094 16.550781 L 109.371094 6.601562 Z M 112.8125 6.601562 " fill-opacity="1" fill-rule="nonzero"/><path fill="#000000" d="M 132.359375 14.589844 C 132.359375 16.425781 132.011719 17.957031 131.308594 19.1875 C 130.605469 20.414062 129.589844 21.335938 128.261719 21.957031 C 126.933594 22.578125 125.332031 22.886719 123.457031 22.886719 L 118.847656 22.886719 L 118.847656 6.601562 L 123.960938 6.601562 C 125.667969 6.601562 127.152344 6.90625 128.40625 7.511719 C 129.660156 8.117188 130.632812 9.011719 131.320312 10.199219 C 132.011719 11.382812 132.359375 12.84375 132.359375 14.589844 Z M 128.773438 14.679688 C 128.773438 13.476562 128.597656 12.484375 128.242188 11.710938 C 127.890625 10.933594 127.371094 10.359375 126.683594 9.988281 C 125.996094 9.617188 125.148438 9.429688 124.140625 9.429688 L 122.304688 9.429688 L 122.304688 20.035156 L 123.785156 20.035156 C 125.46875 20.035156 126.722656 19.585938 127.539062 18.691406 C 128.363281 17.792969 128.773438 16.457031 128.773438 14.679688 Z M 128.773438 14.679688 " fill-opacity="1" fill-rule="nonzero"/><path fill="#000000" d="M 137.789062 6.601562 L 141.242188 6.601562 L 141.242188 22.886719 L 137.789062 22.886719 Z M 137.789062 6.601562 " fill-opacity="1" fill-rule="nonzero"/><path fill="#000000" d="M 160.5625 22.886719 L 156.617188 22.886719 L 152.832031 16.726562 L 149.039062 22.886719 L 145.34375 22.886719 L 150.746094 14.488281 L 145.6875 6.601562 L 149.5 6.601562 L 153.007812 12.460938 L 156.449219 6.601562 L 160.167969 6.601562 L 155.058594 14.679688 Z M 160.5625 22.886719 " fill-opacity="1" fill-rule="nonzero"/><path fill="#000000" d="M 174.632812 22.886719 L 173.453125 19.011719 L 167.511719 19.011719 L 166.332031 22.886719 L 162.613281 22.886719 L 168.359375 6.535156 L 172.582031 6.535156 L 178.351562 22.886719 Z M 172.628906 16.113281 L 171.449219 12.328125 C 171.371094 12.074219 171.269531 11.75 171.148438 11.355469 C 171.027344 10.953125 170.90625 10.550781 170.785156 10.136719 C 170.664062 9.726562 170.5625 9.367188 170.488281 9.0625 C 170.414062 9.367188 170.3125 9.75 170.179688 10.199219 C 170.050781 10.644531 169.925781 11.074219 169.804688 11.476562 C 169.6875 11.875 169.601562 12.160156 169.550781 12.328125 L 168.382812 16.113281 Z M 172.628906 16.113281 " fill-opacity="1" fill-rule="nonzero"/></svg>